<svg xmlns="http://www.w3.org/2000/svg" xmlns:xlink="http://www.w3.org/1999/xlink" viewBox="0 0 48 48" width="48px" height="48px"><defs><radialGradient id="zZyvxZXjA8hozqf_kgvCnc" cx="23.286" cy="6.5" r="87.11" gradientUnits="userSpaceOnUse"><stop offset="0" stop-color="#f2d4a2"/><stop offset=".551" stop-color="#d9a100"/></radialGradient><radialGradient id="zZyvxZXjA8hozqf_kgvCnb" cx="23.286" cy="12.25" r="50.339" gradientTransform="matrix(1 0 0 1.167 0 -2.167)" gradientUnits="userSpaceOnUse"><stop offset="0" stop-color="#757575"/><stop offset=".22" stop-color="#414141"/><stop offset=".441" stop-color="#121212"/><stop offset=".551"/></radialGradient><radialGradient id="zZyvxZXjA8hozqf_kgvCna" cx="23.393" cy="21.375" r="42.709" gradientUnits="userSpaceOnUse"><stop offset="0" stop-color="#f2f2f2"/><stop offset=".886" stop-color="#e6cd9c"/></radialGradient><radialGradient id="zZyvxZXjA8hozqf_kgvCnd" cx="23.393" cy="29.875" r="40.766" xlink:href="#zZyvxZXjA8hozqf_kgvCna"/><radialGradient id="zZyvxZXjA8hozqf_kgvCne" cx="23.393" cy="31.875" r="40.766" xlink:href="#zZyvxZXjA8hozqf_kgvCna"/><radialGradient id="zZyvxZXjA8hozqf_kgvCnf" cx="-70.6" cy="33.875" r="40.288" gradientTransform="matrix(.417 0 0 1 43.167 0)" xlink:href="#zZyvxZXjA8hozqf_kgvCna"/><radialGradient id="zZyvxZXjA8hozqf_kgvCng" cx="19.422" cy="24.381" r="7.477" xlink:href="#zZyvxZXjA8hozqf_kgvCnb"/></defs><g data-name="credit card"><rect width="40" height="28" x="4" y="10" fill="url(#zZyvxZXjA8hozqf_kgvCnc)" rx="3"/><rect width="40" height="7" x="4" y="13" fill="url(#zZyvxZXjA8hozqf_kgvCnb)"/><path fill="url(#zZyvxZXjA8hozqf_kgvCna)" d="M7,22H33v5H7Zm28,0v4h6V22Z"/><rect width="34" height="1" x="7" y="30" fill="url(#zZyvxZXjA8hozqf_kgvCnd)" opacity=".45"/><rect width="34" height="1" x="7" y="32" fill="url(#zZyvxZXjA8hozqf_kgvCne)" opacity=".45"/><rect width="14" height="1" x="7" y="34" fill="url(#zZyvxZXjA8hozqf_kgvCnf)" opacity=".45"/><path fill="url(#zZyvxZXjA8hozqf_kgvCng)" d="M14.109,26.261H14.1a1.122,1.122,0,0,1-1.143-.718,1.209,1.209,0,0,1,.021-.666,5.961,5.961,0,0,0,.178-1.247,9.582,9.582,0,0,0-3.285,2.2.5.5,0,0,1-.717-.7,10.593,10.593,0,0,1,3.978-2.566.709.709,0,0,1,1.026.691,6.949,6.949,0,0,1-.2,1.841c-.015.06-.031.126-.035.16.014-.022.086,0,.183,0h0a3.191,3.191,0,0,0,1.574-.651,8.324,8.324,0,0,1,.969-.544.77.77,0,0,1,.868.072.7.7,0,0,1,.235.5,1.157,1.157,0,0,0,.191-.138,2.6,2.6,0,0,1,.312-.232,1.014,1.014,0,0,1,1.355.162,1.036,1.036,0,0,1,.13.239c.016.025.121.033.239-.008a3.189,3.189,0,0,0,.531-.268c.147-.086.3-.172.45-.245a1.661,1.661,0,0,1,1.59-.014,1.819,1.819,0,0,1,.186.134.743.743,0,0,0,.1.072.984.984,0,0,0,.342,0,21.94,21.94,0,0,1,6.062.553l.175.034a.5.5,0,0,1-.184.982l-.173-.032a21.276,21.276,0,0,0-5.78-.543,1.594,1.594,0,0,1-.875-.093,1.491,1.491,0,0,1-.286-.188.873.873,0,0,0-.092-.068.746.746,0,0,0-.641.067c-.128.06-.249.132-.371.2a3.933,3.933,0,0,1-.709.35,1.156,1.156,0,0,1-1.4-.366,1.187,1.187,0,0,1-.075-.146.283.283,0,0,0-.057.025,1.9,1.9,0,0,0-.2.15,2.007,2.007,0,0,1-.48.322,1.065,1.065,0,0,1-.889-.012.8.8,0,0,1-.416-.471c-.2.107-.39.225-.587.348A3.96,3.96,0,0,1,14.109,26.261Z" opacity=".3"/><rect width="4" height="2" x="36" y="23" opacity=".3"/></g></svg>