<svg xmlns="http://www.w3.org/2000/svg"  viewBox="0 0 24 24" width="24px" height="24px"><path fill="#303C42" d="M19,0H5C3.8969727,0,3,0.8969727,3,2v20c0,1.1030273,0.8969727,2,2,2h14c1.1030273,0,2-0.8969727,2-2V2 C21,0.8969727,20.1030273,0,19,0z"/><path fill="#5C6671" d="M5,1h14c0.5512695,0,1,0.4487305,1,1v16H4V2C4,1.4487305,4.4487305,1,5,1z"/><linearGradient id="Z2d0DSNGz5pAbXqBAU8OYa" x1="2.402" x2="21.757" y1="5.206" y2="14.231" gradientUnits="userSpaceOnUse"><stop offset="0" stop-color="#fff" stop-opacity=".2"/><stop offset="1" stop-color="#fff" stop-opacity="0"/></linearGradient><path fill="url(#Z2d0DSNGz5pAbXqBAU8OYa)" d="M5,1h14c0.5512695,0,1,0.4487305,1,1v16H4V2C4,1.4487305,4.4487305,1,5,1z"/><circle cx="12" cy="21" r="1" fill="#FFF"/><circle cx="18.5" cy="2.5" r=".5" fill="#303C42"/><linearGradient id="Z2d0DSNGz5pAbXqBAU8OYb" x1="6.042" x2="11.192" y1="4.621" y2="7.022" gradientUnits="userSpaceOnUse"><stop offset="0" stop-color="#fff" stop-opacity=".05"/><stop offset="1" stop-color="#fff" stop-opacity="0"/></linearGradient><polygon fill="url(#Z2d0DSNGz5pAbXqBAU8OYb)" points="4,9 12,1 14,1 4,11"/><linearGradient id="Z2d0DSNGz5pAbXqBAU8OYc" x1="7.306" x2="14.428" y1="6.411" y2="9.732" gradientUnits="userSpaceOnUse"><stop offset="0" stop-color="#fff" stop-opacity=".05"/><stop offset="1" stop-color="#fff" stop-opacity="0"/></linearGradient><polygon fill="url(#Z2d0DSNGz5pAbXqBAU8OYc)" points="4,13.5 16.5,1 18.5,1 4,15.5"/><linearGradient id="Z2d0DSNGz5pAbXqBAU8OYd" x1=".607" x2="23.393" y1="6.688" y2="17.312" gradientUnits="userSpaceOnUse"><stop offset="0" stop-color="#fff" stop-opacity=".2"/><stop offset="1" stop-color="#fff" stop-opacity="0"/></linearGradient><path fill="url(#Z2d0DSNGz5pAbXqBAU8OYd)" d="M19,0H5C3.8969727,0,3,0.8969727,3,2v20c0,1.1030273,0.8969727,2,2,2h14 c1.1030273,0,2-0.8969727,2-2V2C21,0.8969727,20.1030273,0,19,0z"/></svg>